<svg width="36" height="37" viewBox="0 0 36 37" fill="current" xmlns="http://www.w3.org/2000/svg">
<path fill-rule="evenodd" clip-rule="evenodd" d="M25.5269 37H10.4731C4.71264 37 0 32.2858 0 26.5236V10.4764C0 4.71416 4.71264 0 10.4731 0H25.5269C31.2874 0 36 4.71416 36 10.4764V26.5226C36 32.2849 31.2874 37 25.5269 37ZM25.5269 34.2313C27.5741 34.2313 29.5057 33.426 30.9669 31.9643C32.4281 30.5026 33.2331 28.5705 33.2331 26.5226V10.4764C33.2331 8.42858 32.4281 6.49644 30.9669 5.03476C29.5057 3.57309 27.5741 2.76779 25.5269 2.76779H10.4731C8.42585 2.76779 6.49434 3.57309 5.03313 5.03476C3.57193 6.49644 2.7669 8.42858 2.7669 10.4764V26.5226C2.7669 28.5705 3.57193 30.5026 5.03313 31.9643C6.49434 33.426 8.42585 34.2313 10.4731 34.2313H25.5269Z" />
<path fill-rule="evenodd" clip-rule="evenodd" d="M28 18C28 23.5227 23.5225 28 17.9995 28C12.4765 28 8 23.5227 8 18C8 12.4773 12.4775 8 18.0005 8C23.5235 8 28 12.4773 28 18ZM17.9517 11.4596C14.3351 11.4596 11.4033 14.3912 11.4033 18.0077C11.4033 21.6241 14.3351 24.5557 17.9517 24.5557C21.5683 24.5557 24.5001 21.6241 24.5001 18.0077C24.5001 14.3912 21.5683 11.4596 17.9517 11.4596Z" />
<path d="M30.4242 8.71065C30.6858 7.44072 29.8685 6.19912 28.5985 5.93746C27.3286 5.6758 26.087 6.49316 25.8253 7.76309C25.5637 9.03302 26.381 10.2746 27.651 10.5363C28.9209 10.7979 30.1625 9.98058 30.4242 8.71065Z" />
</svg>
