<svg width="24" height="39" viewBox="0 0 24 39" fill="current" xmlns="http://www.w3.org/2000/svg">
<path d="M11.6553 19.8198C17.086 19.833 21.5173 15.4806 21.5436 10.1156C21.5699 4.61923 17.2043 0.161616 11.7737 0.148467C6.34302 0.135318 1.938 4.51403 1.89855 9.95785C1.87226 15.3491 6.27727 19.8067 11.6553 19.8198ZM11.7342 5.1715C14.4035 5.1715 16.5337 7.30169 16.5337 9.971C16.5469 12.6403 14.4167 14.7836 11.7474 14.7968C9.07807 14.8099 6.92159 12.6929 6.90844 10.0367C6.89529 7.34114 9.05177 5.1715 11.7342 5.1715Z" />
<path d="M1.76664 24.6454C4.09407 26.46 6.80282 27.2095 9.82716 27.5251C9.61678 27.7487 9.47213 27.9065 9.32749 28.0511C7.11841 30.2602 4.90933 32.4824 2.70024 34.6915C2.24002 35.1517 1.91128 35.6645 1.88499 36.322C1.83239 37.3082 2.45041 38.2944 3.41031 38.7546C4.31761 39.1886 5.23806 39.0571 6.02702 38.2813C7.76272 36.5718 9.48528 34.8493 11.1815 33.1004C11.6023 32.6665 11.839 32.5613 12.3255 33.0741C13.9823 34.8098 15.7049 36.4667 17.388 38.1761C17.8219 38.6231 18.3216 38.9387 18.9659 38.9782C19.9653 39.0439 20.9909 38.3996 21.4511 37.4266C21.8719 36.5324 21.7141 35.5857 20.9515 34.8098C18.7161 32.5482 16.4676 30.3128 14.2322 28.0642C14.0744 27.9065 13.956 27.775 13.7062 27.4988C15.3499 27.3016 17.0198 26.9992 18.5452 26.4206C20.1494 25.8026 21.5958 24.9084 22.8055 23.6724C23.5945 22.8703 23.5945 21.8578 22.9633 20.819C22.411 19.9117 21.438 19.5303 20.3992 19.7933C19.8601 19.9248 19.3999 20.201 18.9791 20.5297C14.6267 23.462 8.67003 23.3699 4.3439 20.3982C4.13352 20.2536 3.90998 20.1089 3.67329 20.0037C2.47671 19.4383 1.31957 19.7013 0.622652 20.6875C-0.179455 21.8446 -0.0742605 22.9623 0.938236 23.9354C1.17492 24.1984 1.47736 24.4219 1.76664 24.6454Z" />
</svg>
