<svg width="42" height="24" viewBox="0 0 42 24" fill="current" xmlns="http://www.w3.org/2000/svg">
<path d="M9.22797 2.46325C10.396 5.34323 11.8839 8.0709 13.8446 10.5078C14.1088 10.8263 14.4286 11.117 14.7762 11.3524C15.2768 11.6986 15.7496 11.5739 15.9582 11.0063C16.1807 10.4109 16.3753 9.17858 16.3892 8.55551C16.417 6.90783 16.3892 5.82784 16.2919 4.16632C16.2363 3.11402 15.8608 2.18633 14.3034 1.90941C13.8167 1.82634 13.775 1.4248 14.0809 1.03711C14.7206 0.220195 15.6244 0.0817348 16.5978 0.0401967C18.1691 -0.0428796 19.7543 0.0263506 21.3395 0.0401967C21.9792 0.0401967 22.6327 0.095581 23.2585 0.234041C24.0789 0.41404 24.5239 0.995573 24.6629 1.79864C24.7325 2.21402 24.7742 2.64325 24.7603 3.05863C24.7185 4.85862 24.6351 6.6586 24.6073 8.45859C24.5934 9.16474 24.649 9.88473 24.802 10.577C25.0106 11.5324 25.6641 11.7816 26.3455 11.0893C27.1937 10.2032 27.9446 9.22012 28.6538 8.20936C29.9331 6.38168 30.8925 4.37401 31.7129 2.2971C32.144 1.23096 32.4638 0.995574 33.618 0.995574C35.7872 0.995574 37.9564 0.995574 40.1257 0.995574C40.515 0.995574 40.9183 1.03711 41.2798 1.14788C41.8639 1.34172 42.1002 1.81249 41.9612 2.42172C41.6414 3.84786 40.8627 5.05246 40.0423 6.21553C38.7073 8.08475 37.3168 9.89858 35.968 11.7539C35.8011 11.9893 35.6482 12.2386 35.4952 12.4878C34.9807 13.4016 35.0224 13.9139 35.7594 14.6755C36.9414 15.8939 38.2067 17.0154 39.347 18.2616C40.1813 19.1616 40.9461 20.1446 41.5997 21.1831C42.434 22.4985 41.9195 23.7308 40.3621 23.9385C39.3887 24.0769 34.6053 23.9385 34.355 23.9385C33.0757 23.9385 31.9493 23.4954 31.0316 22.6231C30.0165 21.6539 29.1126 20.5877 28.1393 19.5908C27.8473 19.2862 27.5413 18.9954 27.1937 18.7462C26.4011 18.1508 25.6224 18.2754 25.247 19.2031C24.9271 19.9923 24.6629 22.0831 24.649 22.2631C24.5795 23.1908 23.9816 23.7862 22.9387 23.8554C19.9073 24.0215 16.9733 23.6892 14.2339 22.2216C11.9117 20.9893 10.0623 19.2308 8.46318 17.1954C5.9185 13.9555 3.90222 10.397 2.06671 6.72783C1.96937 6.53399 0.106056 2.60171 0.0643394 2.40787C-0.102525 1.7848 0.0504341 1.18942 0.578838 0.981728C0.912567 0.857113 7.04483 0.981728 7.14217 0.981728C8.15726 1.05096 8.82472 1.45249 9.22797 2.46325Z" />
</svg>
