<svg width="96" height="112" viewBox="0 0 96 112" fill="current" xmlns="http://www.w3.org/2000/svg">
<path d="M47.8954 57.7693C31.9688 57.7693 19.0107 44.8112 19.0107 28.8847C19.0107 12.9581 31.9663 0 47.8954 0C63.8245 0 76.7801 12.9581 76.7801 28.8847C76.7801 44.8112 63.822 57.7693 47.8954 57.7693ZM47.8954 4.44379C34.4193 4.44379 23.4545 15.4085 23.4545 28.8847C23.4545 42.3608 34.4193 53.3255 47.8954 53.3255C61.3715 53.3255 72.3363 42.3608 72.3363 28.8847C72.3363 15.4085 61.3715 4.44379 47.8954 4.44379Z"/>
<path d="M46.9644 81.8166C40.3114 81.8166 34.7021 76.6212 34.1917 69.986L32.9754 54.0873C32.8814 52.8634 33.7981 51.7969 35.0221 51.7029C36.2435 51.5988 37.3125 52.5257 37.4065 53.7496L38.6228 69.6482C38.9555 73.9803 42.6171 77.3754 46.9644 77.3754C51.3117 77.3754 54.9734 73.9828 55.3061 69.6482L56.5224 53.7496C56.6164 52.5257 57.6981 51.5963 58.9068 51.7029C60.1308 51.7969 61.0475 52.8634 60.9535 54.0873L59.7372 69.986C59.2293 76.6212 53.6174 81.8166 46.9644 81.8166Z"/>
<path d="M47.8957 33.3285C46.6692 33.3285 45.6738 32.333 45.6738 31.1066V22.219C45.6738 20.9925 46.6692 19.9971 47.8957 19.9971C49.1222 19.9971 50.1176 20.9925 50.1176 22.219V31.1066C50.1176 32.333 49.1222 33.3285 47.8957 33.3285Z"/>
<path d="M39.0082 15.5533C39.0082 16.7798 38.0128 17.7752 36.7864 17.7752C35.5599 17.7752 34.5645 16.7798 34.5645 15.5533C34.5645 14.3268 35.5599 13.3314 36.7864 13.3314C38.0128 13.3314 39.0082 14.3268 39.0082 15.5533Z"/>
<path d="M50.1176 15.5533C50.1176 16.7798 49.1222 17.7752 47.8957 17.7752C46.6692 17.7752 45.6738 16.7798 45.6738 15.5533C45.6738 14.3268 46.6692 13.3314 47.8957 13.3314C49.1222 13.3314 50.1176 14.3268 50.1176 15.5533Z"/>
<path d="M39.0082 42.216C39.0082 43.4425 38.0128 44.4379 36.7864 44.4379C35.5599 44.4379 34.5645 43.4425 34.5645 42.216C34.5645 40.9896 35.5599 39.9941 36.7864 39.9941C38.0128 39.9941 39.0082 40.9896 39.0082 42.216Z"/>
<path d="M61.227 42.216C61.227 43.4425 60.2316 44.4379 59.0051 44.4379C57.7786 44.4379 56.7832 43.4425 56.7832 42.216C56.7832 40.9896 57.7786 39.9941 59.0051 39.9941C60.2316 39.9941 61.227 40.9896 61.227 42.216Z"/>
<path d="M50.1176 42.216C50.1176 43.4425 49.1222 44.4379 47.8957 44.4379C46.6692 44.4379 45.6738 43.4425 45.6738 42.216C45.6738 40.9896 46.6692 39.9941 47.8957 39.9941C49.1222 39.9941 50.1176 40.9896 50.1176 42.216Z"/>
<path d="M61.227 15.5533C61.227 16.7798 60.2316 17.7752 59.0051 17.7752C57.7786 17.7752 56.7832 16.7798 56.7832 15.5533C56.7832 14.3268 57.7786 13.3314 59.0051 13.3314C60.2316 13.3314 61.227 14.3268 61.227 15.5533Z"/>
<path d="M59.0053 31.1066H36.7864C35.5599 31.1066 34.5645 30.1111 34.5645 28.8847V22.219C34.5645 20.9925 35.5599 19.9971 36.7864 19.9971C38.0128 19.9971 39.0082 20.9925 39.0082 22.219V26.6628H56.7834V22.219C56.7834 20.9925 57.7763 19.9971 59.0053 19.9971C60.2344 19.9971 61.2272 20.9925 61.2272 22.219V28.8847C61.2272 30.1111 60.2344 31.1066 59.0053 31.1066Z"/>
<path d="M59.0053 37.7723C57.7763 37.7723 56.7834 36.7769 56.7834 35.5504V31.1066H39.0082V35.5504C39.0082 36.7769 38.0128 37.7723 36.7864 37.7723C35.5599 37.7723 34.5645 36.7769 34.5645 35.5504V28.8847C34.5645 27.6583 35.5599 26.6628 36.7864 26.6628H59.0053C60.2344 26.6628 61.2272 27.6583 61.2272 28.8847V35.5504C61.2272 36.7769 60.2344 37.7723 59.0053 37.7723Z"/>
<path d="M47.8957 37.7723C46.6692 37.7723 45.6738 36.7769 45.6738 35.5504V26.6628C45.6738 25.4363 46.6692 24.4409 47.8957 24.4409C49.1222 24.4409 50.1176 25.4363 50.1176 26.6628V35.5504C50.1176 36.7769 49.1222 37.7723 47.8957 37.7723Z"/>
<path d="M78.4967 99.9854H17.3425C15.3542 99.9854 13.4497 99.1398 12.114 97.667C10.7809 96.1942 10.1258 94.2135 10.3238 92.2329L14.9301 45.9971C15.2755 42.5741 18.1246 39.9941 21.5628 39.9941H23.4546C24.6811 39.9941 25.6765 40.9896 25.6765 42.216C25.6765 43.4425 24.6811 44.4379 23.4546 44.4379H21.5628C20.4176 44.4379 19.4653 45.2988 19.3511 46.4389L14.7448 92.6722C14.6711 93.4162 14.9047 94.1297 15.4075 94.6833C15.9103 95.2369 16.5959 95.5416 17.3425 95.5416H78.4967C79.2585 95.5416 79.9568 95.2242 80.4596 94.6528C80.9624 94.0789 81.1859 93.3476 81.0843 92.5909L74.9366 46.3704C74.7919 45.2708 73.8422 44.4405 72.7325 44.4405H72.3363C71.1073 44.4405 70.1144 43.4451 70.1144 42.2186C70.1144 40.9921 71.1073 39.9967 72.3363 39.9967H72.7325C76.0615 39.9967 78.9005 42.4852 79.3398 45.7863L85.4874 92.0043C85.7541 94.0205 85.1395 96.0545 83.8013 97.5832C82.4606 99.1119 80.5282 99.9879 78.4967 99.9879V99.9854Z"/>
<path d="M88.7381 111.095H7.05358C5.03229 111.095 3.10749 110.226 1.76927 108.713C0.431054 107.2 -0.193617 105.183 0.0526967 103.177L6.03785 54.7297C6.45176 51.3931 9.29325 48.8792 12.6553 48.8792H16.7893C18.0158 48.8792 19.0112 49.8746 19.0112 51.101C19.0112 52.3275 18.0158 53.3229 16.7893 53.3229H12.6553C11.5355 53.3229 10.5858 54.1609 10.4486 55.2731L4.46348 103.723C4.36953 104.475 4.59552 105.201 5.09831 105.77C5.59855 106.339 6.29432 106.651 7.05358 106.651H88.7407C89.5203 106.651 90.2236 106.323 90.729 105.732C91.2343 105.138 91.4425 104.386 91.3181 103.617L83.3269 55.1868C83.1491 54.1101 82.2248 53.328 81.1329 53.328H79.005C77.7759 53.328 76.7831 52.3326 76.7831 51.1061C76.7831 49.8796 77.7759 48.8842 79.005 48.8842H81.1329C84.4112 48.8842 87.1765 51.2306 87.7097 54.4656L95.7009 102.895C96.0387 104.945 95.4622 107.027 94.1189 108.609C92.7757 110.191 90.8178 111.097 88.7407 111.097L88.7381 111.095Z"/>
</svg>
