<svg width="88" height="112" viewBox="0 0 88 112" fill="current" xmlns="http://www.w3.org/2000/svg">
<path d="M78.9469 0.00560831H34.5192C34.417 -0.00186944 34.3148 -0.00186944 34.2126 0.00560831C33.8661 0.0130861 33.5321 0.1427 33.2754 0.377003C33.1856 0.42187 33.0984 0.471721 33.0136 0.529051L24.7906 8.29344L19.0327 1.75042C18.2376 0.848101 16.8617 0.760861 15.9569 1.5535L1.78407 14.0513C0.881751 14.8489 0.794511 16.2224 1.58715 17.1272L7.86846 24.2584L0.495401 31.2377C0.365786 31.3822 0.256113 31.5443 0.168872 31.7187C0.114036 31.7885 0.0616914 31.8608 0.0168249 31.9381C0.00934719 32.0403 0.00934719 32.1425 0.0168249 32.2422C-0.00560831 32.4241 -0.00560831 32.6061 0.0168249 32.7881V102.187C0.0218101 104.547 0.946558 106.815 2.59665 108.505C4.24674 110.195 6.49006 111.175 8.85054 111.237H78.9494C81.3473 111.232 83.6455 110.275 85.3429 108.58C87.0379 106.885 87.995 104.584 88 102.187V9.06116C87.995 6.6633 87.0379 4.36264 85.3429 2.66769C83.6455 0.970238 81.3473 0.0155786 78.9494 0.00810089L78.9469 0.00560831ZM10.7474 21.033L6.38537 15.9955L17.2904 6.37665L21.6524 11.3718L20.6056 12.3539L10.7474 21.033ZM83.6155 102.189C83.6155 103.428 83.1245 104.619 82.2496 105.497C81.3747 106.374 80.1882 106.873 78.9469 106.878H8.85054C7.60674 106.878 6.41528 106.384 5.5354 105.504C4.65552 104.624 4.16199 103.433 4.16199 102.189V33.8549L23.5294 15.5568L26.169 13.2238C26.3535 13.0543 26.508 12.8574 26.6276 12.6355L35.3965 4.37012H79.0167C80.2605 4.37012 81.452 4.86365 82.3319 5.74353C83.2117 6.62341 83.7053 7.81487 83.7053 9.05867L83.618 102.189H83.6155Z"/>
<path d="M70.071 9.38513H42.0245C39.9058 9.38513 37.9466 10.5168 36.8873 12.3513C35.8279 14.1883 35.8279 16.4491 36.8873 18.2837C37.9466 20.1182 39.9058 21.2498 42.0245 21.2498H70.071C72.1897 21.2498 74.1489 20.1182 75.2083 18.2837C76.2676 16.4491 76.2676 14.1883 75.2083 12.3513C74.1489 10.5168 72.1897 9.38513 70.071 9.38513ZM70.071 16.8878H42.0245C41.1571 16.8878 40.4542 16.1849 40.4542 15.3175C40.4542 14.4501 41.1571 13.7472 42.0245 13.7472H70.071C70.9385 13.7472 71.6414 14.4501 71.6414 15.3175C71.6414 16.1849 70.9385 16.8878 70.071 16.8878Z"/>
<path d="M64.183 47.5067C63.333 46.6617 61.9571 46.6617 61.1072 47.5067L50.5511 58.0628C48.7714 56.8863 46.6876 56.2557 44.5539 56.2532H43.2453C41.1117 56.2557 39.0254 56.8863 37.2482 58.0628L26.6921 47.5067C25.8371 46.6567 24.4562 46.6617 23.6063 47.5167C22.7563 48.3716 22.7613 49.755 23.6162 50.6025L34.1723 61.0713C32.9958 62.851 32.3652 64.9348 32.3602 67.0685V68.3771C32.3652 70.5107 32.9933 72.597 34.1723 74.3742L23.6162 85.0624C23.1551 85.4588 22.8784 86.0271 22.856 86.6353C22.8336 87.2434 23.0629 87.8317 23.4916 88.2604C23.9203 88.6916 24.5111 88.9209 25.1168 88.8985C25.725 88.8761 26.2933 88.5994 26.6896 88.1383L37.2457 77.5822C39.0254 78.7612 41.1092 79.3893 43.2428 79.3943H44.5514C46.6851 79.3893 48.7714 78.7612 50.5486 77.5847L61.1047 88.1408C61.9696 88.8811 63.2583 88.8312 64.0659 88.0261C64.871 87.221 64.9208 85.9298 64.1805 85.0649L53.6244 74.5088C54.8009 72.7291 55.4316 70.6453 55.4365 68.5117V67.2031C55.459 65.027 54.8284 62.8909 53.6244 61.0738L64.1805 50.605C64.5943 50.1962 64.8261 49.6378 64.8261 49.0571C64.8261 48.4763 64.5943 47.918 64.1805 47.5092L64.183 47.5067ZM43.2453 74.9874C41.5105 74.9874 39.8454 74.297 38.6191 73.0706C37.3927 71.8443 36.7023 70.1792 36.7023 68.4444V67.1358C36.7023 65.4009 37.3927 63.7359 38.6191 62.5095C39.8454 61.2832 41.5105 60.5927 43.2453 60.5927H44.5539C46.2888 60.5927 47.9538 61.2832 49.1802 62.5095C50.4065 63.7384 51.097 65.4009 51.097 67.1358V68.4444C51.097 70.1792 50.4065 71.8443 49.1802 73.0706C47.9538 74.297 46.2888 74.9874 44.5539 74.9874H43.2453Z"/>
</svg>
