<svg width="100" height="75" viewBox="0 0 100 75" fill="current" xmlns="http://www.w3.org/2000/svg">
<path d="M88.4318 0.764893H11.2473C5.04516 0.764893 0 5.81203 0 12.0142V62.9187C0 69.1208 5.04516 74.166 11.2473 74.166H88.4298C94.6319 74.166 99.6771 69.1208 99.6771 62.9187V12.0142C99.6771 5.81203 94.6339 0.764893 88.4318 0.764893ZM95.249 62.9187C95.249 66.6783 92.1895 69.7359 88.4318 69.7359H82.8467V65.9505C82.8467 64.7283 81.8539 63.7355 80.6317 63.7355C79.4094 63.7355 78.4166 64.7283 78.4166 65.9505V69.7359H70.5295V65.9505C70.5295 64.7283 69.5366 63.7355 68.3144 63.7355C67.0922 63.7355 66.0994 64.7283 66.0994 65.9505V69.7359H58.2142V65.9505C58.2142 64.7283 57.2214 63.7355 55.9991 63.7355C54.7769 63.7355 53.7841 64.7283 53.7841 65.9505V69.7359H45.897V65.9505C45.897 64.7283 44.9041 63.7355 43.6819 63.7355C42.4597 63.7355 41.4669 64.7283 41.4669 65.9505V69.7359H33.5817V65.9505C33.5817 64.7283 32.5889 63.7355 31.3666 63.7355C30.1444 63.7355 29.1516 64.7283 29.1516 65.9505V69.7359H21.2644V65.9505C21.2644 64.7283 20.2716 63.7355 19.0494 63.7355C17.8272 63.7355 16.8344 64.7283 16.8344 65.9505V69.7359H11.2493C7.48963 69.7359 4.43009 66.6783 4.43009 62.9187V12.0122C4.43009 8.25254 7.48963 5.19499 11.2473 5.19499H16.8324V8.98034C16.8324 10.2026 17.8252 11.1954 19.0474 11.1954C20.2697 11.1954 21.2625 10.2026 21.2625 8.98034V5.19499H29.1496V8.98232C29.1496 10.2046 30.1424 11.1974 31.3647 11.1974C32.5869 11.1974 33.5797 10.2046 33.5797 8.98232V5.19499H41.4649V8.98232C41.4649 10.2046 42.4577 11.1974 43.6799 11.1974C44.9022 11.1974 45.895 10.2046 45.895 8.98232V5.19499H53.7821V8.98232C53.7821 10.2046 54.7749 11.1974 55.9972 11.1974C57.2194 11.1974 58.2122 10.2046 58.2122 8.98232V5.19499H66.0974V8.98232C66.0974 10.2046 67.0902 11.1974 68.3124 11.1974C69.5347 11.1974 70.5275 10.2046 70.5275 8.98232V5.19499H78.4146V8.98232C78.4146 10.2046 79.4074 11.1974 80.6297 11.1974C81.8519 11.1974 82.8447 10.2046 82.8447 8.98232V5.19499H88.4298C92.1895 5.19499 95.247 8.25452 95.247 12.0122V62.9187H95.249Z"/>
<path d="M34.2745 36.2966C35.8745 34.7045 36.8653 32.5033 36.8653 30.0747C36.8653 25.2312 32.9237 21.2916 28.0823 21.2916C23.2408 21.2916 19.2992 25.2332 19.2992 30.0747C19.2992 32.5033 20.29 34.7045 21.89 36.2966C18.8483 38.3119 16.835 41.761 16.835 45.6769V49.308C16.835 51.6951 18.7791 53.6392 21.1662 53.6392H34.9964C37.3835 53.6392 39.3276 51.6951 39.3276 49.308V45.6769C39.3295 41.763 37.3182 38.3139 34.2745 36.2966ZM23.7293 30.0747C23.7293 27.6737 25.6833 25.7217 28.0823 25.7217C30.4812 25.7217 32.4352 27.6757 32.4352 30.0747C32.4352 32.4737 30.4812 34.4296 28.0823 34.4296C25.6833 34.4296 23.7293 32.4756 23.7293 30.0747ZM34.8995 49.2091H21.2631V45.6769C21.2631 41.9173 24.3226 38.8597 28.0803 38.8597C31.8379 38.8597 34.8975 41.9192 34.8975 45.6769V49.2091H34.8995Z"/>
<path d="M80.6316 21.2916H50.0422C48.82 21.2916 47.8271 22.2844 47.8271 23.5067C47.8271 24.7289 48.82 25.7217 50.0422 25.7217H80.6316C81.8538 25.7217 82.8466 24.7289 82.8466 23.5067C82.8466 22.2844 81.8538 21.2916 80.6316 21.2916Z"/>
<path d="M80.2523 35.2506H49.8547C48.6325 35.2506 47.6396 36.2434 47.6396 37.4657C47.6396 38.6879 48.6325 39.6807 49.8547 39.6807H80.2523C81.4745 39.6807 82.4673 38.6879 82.4673 37.4657C82.4673 36.2434 81.4745 35.2506 80.2523 35.2506Z"/>
<path d="M79.8729 49.209H49.6652C48.443 49.209 47.4502 50.2018 47.4502 51.424C47.4502 52.6463 48.443 53.6391 49.6652 53.6391H79.8749C81.0972 53.6391 82.09 52.6463 82.09 51.424C82.09 50.2018 81.0991 49.209 79.8749 49.209H79.8729Z"/>
</svg>
