<svg width="97" height="111" viewBox="0 0 97 111" fill="current" xmlns="http://www.w3.org/2000/svg">
<path d="M48.5057 0C47.2643 0 46.4039 0.476836 45.4669 0.990857C44.532 1.50488 43.584 2.12826 42.6535 2.76696C41.723 3.40347 40.8079 4.05967 40.046 4.54525C39.2841 5.03303 38.5901 5.35019 38.5266 5.36769C38.4631 5.383 37.7056 5.44643 36.8013 5.40487C35.8971 5.36112 34.7959 5.26926 33.6705 5.17958C32.5452 5.09208 31.4002 5.00678 30.3318 5.03084C29.2633 5.05271 28.2935 5.06584 27.2185 5.68485C26.1435 6.30386 25.6356 7.12848 25.0816 8.04059C24.5277 8.95052 24.0308 10.0004 23.5447 11.0154C23.0565 12.0325 22.5901 13.0168 22.1764 13.8195C21.7626 14.6201 21.3203 15.2522 21.2743 15.3003C21.2284 15.3462 20.6 15.7837 19.7965 16.1971C18.993 16.6105 17.9837 17.0764 16.9635 17.562C15.9432 18.0476 14.9142 18.5616 13.9991 19.1128C13.0839 19.664 12.2563 20.1562 11.6345 21.228C11.0128 22.2997 11.0018 23.2665 10.9799 24.3296C10.958 25.3948 11.0412 26.5366 11.1288 27.6609C11.2164 28.7852 11.3105 29.881 11.3521 30.7822C11.3959 31.6834 11.3324 32.4424 11.3149 32.5058C11.2996 32.5692 10.9624 33.2604 10.4742 34.0194C9.98595 34.7784 9.35103 35.6905 8.71173 36.6223C8.07244 37.5519 7.4419 38.5122 6.9274 39.444C6.4129 40.378 5.93561 41.2179 5.93561 42.4559C5.93561 43.6939 6.4129 44.5317 6.9274 45.4657C7.4419 46.3997 8.07244 47.3621 8.71173 48.2917C9.35103 49.2213 9.98595 50.1115 10.4742 50.8705C10.9624 51.6295 11.2996 52.3207 11.3149 52.3842C11.3302 52.4476 11.3959 53.2066 11.3521 54.1078C11.3083 55.0089 11.2164 56.1245 11.1288 57.2488C11.0412 58.3731 10.9558 59.5148 10.9799 60.5801C11.0018 61.6453 11.015 62.6099 11.6345 63.6817C12.2563 64.7535 13.0861 65.2456 13.9991 65.7968C14.5376 66.1227 15.12 66.4333 15.7155 66.7352L0.258579 93.4686C-0.0982879 94.0854 -0.0829623 94.8466 0.295799 95.4481C0.676749 96.0497 1.35983 96.3909 2.06919 96.334L18.5683 94.991L25.6553 109.911C25.9618 110.547 26.5945 110.965 27.3017 110.996C28.0088 111.024 28.6744 110.663 29.0335 110.053L44.5057 83.3413C44.8254 83.5404 45.1472 83.746 45.4669 83.921C46.4017 84.435 47.2643 84.9118 48.5057 84.9118C49.7471 84.9118 50.59 84.435 51.5249 83.921C51.8927 83.7197 52.2605 83.4879 52.6283 83.256L67.9495 109.729C68.3042 110.346 68.9763 110.716 69.69 110.687C70.4038 110.659 71.0409 110.234 71.343 109.589L78.43 94.6848L94.9335 96.0125C95.6428 96.0672 96.3259 95.7259 96.7047 95.1244C97.0834 94.5229 97.0988 93.7617 96.7419 93.1449L81.4076 66.6674C81.9549 66.3874 82.4891 66.1009 82.9861 65.8012C83.8991 65.25 84.7288 64.7578 85.3506 63.6861C85.9724 62.6143 85.9833 61.6475 86.0052 60.5844C86.0271 59.5192 85.9614 58.3774 85.8739 57.2531C85.7863 56.1289 85.6746 55.0155 85.6308 54.1121C85.5871 53.211 85.6659 52.452 85.6878 52.3885C85.7031 52.3251 86.0249 51.6339 86.5154 50.8749C87.0036 50.1159 87.6385 49.2257 88.2778 48.2961C88.9171 47.3664 89.563 46.404 90.0775 45.47C90.592 44.5361 91.0539 43.7005 91.0539 42.4603C91.0539 41.2201 90.592 40.3801 90.0775 39.4483C89.563 38.5144 88.9171 37.5541 88.2778 36.6267C87.6385 35.6971 87.0036 34.785 86.5154 34.0238C86.0271 33.2648 85.7053 32.5736 85.6878 32.5102C85.6724 32.4467 85.5892 31.6877 85.6308 30.7866C85.6746 29.8854 85.7863 28.7895 85.8739 27.6652C85.9614 26.541 86.0271 25.3992 86.0052 24.334C85.9833 23.2687 85.9702 22.3041 85.3506 21.2323C84.7288 20.1605 83.8991 19.6684 82.9861 19.1172C82.0731 18.566 81.0463 18.052 80.0261 17.5664C79.0058 17.0808 77.9965 16.6149 77.193 16.2015C76.3895 15.7881 75.759 15.3506 75.7108 15.3047C75.6648 15.2588 75.2248 14.6266 74.8088 13.8239C74.395 13.0233 73.9265 12.0368 73.4404 11.0197C72.9522 10.0026 72.4552 8.95489 71.9035 8.04497C71.3496 7.13504 70.8417 6.30824 69.7667 5.68922C68.6917 5.07021 67.7218 5.05709 66.6534 5.03521C65.585 5.01334 64.4421 5.09865 63.3146 5.18395C62.1893 5.27144 61.0858 5.3655 60.1838 5.40925C59.2796 5.45299 58.5221 5.38956 58.4586 5.37206C58.3951 5.35675 57.7011 5.0374 56.9392 4.54963C56.1773 4.05967 55.2621 3.40566 54.3316 2.76915C53.4011 2.13264 52.4575 1.50706 51.5205 0.993044C50.59 0.479023 49.7471 0 48.5057 0ZM48.5057 3.83C48.3503 3.83 48.9502 3.94593 49.6661 4.33746C50.382 4.72899 51.2796 5.30863 52.1795 5.92545C53.0815 6.54228 53.9901 7.19848 54.8615 7.75843C55.7328 8.3162 56.4794 8.78428 57.4646 9.04676C58.4498 9.30924 59.3365 9.26331 60.3721 9.21519C61.4077 9.16488 62.5264 9.0752 63.6167 8.98989C64.707 8.90459 65.7645 8.84115 66.5811 8.85865C67.3978 8.87396 67.9933 9.06645 67.8576 8.98989C67.7218 8.91115 68.2013 9.32455 68.6238 10.0223C69.0464 10.7179 69.5215 11.6737 69.9922 12.658C70.4651 13.6423 70.9249 14.6594 71.3999 15.5781C71.875 16.4968 72.291 17.2886 73.0135 18.0082C73.7338 18.7278 74.5132 19.1238 75.435 19.5962C76.3545 20.0687 77.3944 20.5499 78.3797 21.0202C79.3671 21.4904 80.3041 21.9629 81.0025 22.385C81.7009 22.8072 82.1125 23.2687 82.0359 23.1331C81.9571 22.9975 82.1695 23.5903 82.1848 24.4039C82.2001 25.2176 82.141 26.2741 82.0534 27.3612C81.968 28.4483 81.8586 29.5813 81.8104 30.6138C81.76 31.6462 81.7163 32.5123 81.979 33.4966C82.2439 34.4787 82.7321 35.2246 83.2926 36.0952C83.8509 36.9635 84.4924 37.891 85.1098 38.79C85.7272 39.6889 86.3095 40.5617 86.7036 41.2748C87.0977 41.9878 87.2269 42.6112 87.2269 42.4559C87.2269 42.3006 87.0955 42.9196 86.7036 43.6327C86.3095 44.3458 85.7272 45.2185 85.1098 46.1175C84.4924 47.0165 83.8509 47.9439 83.2926 48.8123C82.7343 49.6806 82.2439 50.409 81.979 51.3911C81.7141 52.3732 81.7622 53.2591 81.8104 54.2915C81.8608 55.3239 81.968 56.4373 82.0534 57.5244C82.1388 58.6115 82.2023 59.6679 82.1848 60.4816C82.1695 61.2953 81.9571 61.8881 82.0359 61.7525C82.1147 61.6168 81.7009 62.0959 81.0025 62.518C80.3041 62.9402 79.3671 63.4126 78.3797 63.8829C77.3944 64.3532 76.3545 64.8344 75.435 65.3069C74.5154 65.7793 73.736 66.1774 73.0135 66.8949C72.2932 67.6145 71.875 68.3888 71.3999 69.3053C70.9249 70.224 70.4651 71.2586 69.9922 72.2429C69.5193 73.2271 69.0464 74.1633 68.6238 74.8589C68.2013 75.5545 67.7218 75.9679 67.8576 75.8891C67.9933 75.8104 67.3978 76.0225 66.5811 76.0379C65.7645 76.0532 64.7092 75.9919 63.6167 75.9066C62.5264 75.8235 61.4077 75.7141 60.3721 75.6638C59.3387 75.6135 58.4498 75.5698 57.4646 75.8323C56.4794 76.0947 55.7328 76.5825 54.8615 77.1403C53.9901 77.698 53.0793 78.3542 52.1795 78.9732C51.2775 79.5901 50.3798 80.1719 49.6661 80.5656C48.9502 80.9593 48.3503 81.0709 48.5057 81.0709C48.6612 81.0709 48.0394 80.9593 47.3235 80.5656C46.6075 80.1741 45.7296 79.5901 44.8276 78.9732C43.9256 78.3564 43.0016 77.7002 42.1303 77.1403C41.2589 76.5803 40.5079 76.0947 39.5227 75.8323C38.5375 75.5698 37.6508 75.6157 36.6152 75.6638C35.5797 75.7141 34.4609 75.8213 33.3706 75.9066C32.2803 75.9919 31.2228 76.0554 30.4062 76.0379C29.5896 76.0204 28.9941 75.8104 29.1298 75.8891C29.2655 75.9679 28.7861 75.5523 28.3635 74.8567C27.941 74.1611 27.4659 73.225 26.9952 72.2407C26.5223 71.2564 26.0625 70.2218 25.5874 69.3031C25.1123 68.3844 24.7138 67.6123 23.9935 66.8927C23.2732 66.173 22.4785 65.7771 21.559 65.3025C20.6394 64.83 19.5995 64.3488 18.6143 63.8785C17.6268 63.4083 16.6854 62.9358 15.987 62.5136C15.2886 62.0915 14.8792 61.6125 14.958 61.7481C15.0368 61.8837 14.8223 61.2909 14.8047 60.4772C14.7894 59.6636 14.8507 58.6071 14.9361 57.52C15.0215 56.4329 15.1353 55.3174 15.1835 54.2871C15.2339 53.2547 15.2798 52.3689 15.0149 51.3867C14.75 50.4024 14.2618 49.6763 13.7013 48.8079C13.143 47.9373 12.5015 47.0121 11.8841 46.1131C11.2667 45.2141 10.6844 44.3414 10.2903 43.6283C9.89618 42.9152 9.76263 42.2962 9.76263 42.4515C9.76263 42.6068 9.89618 41.9834 10.2903 41.2704C10.6844 40.5573 11.2667 39.6846 11.8841 38.7856C12.5015 37.8866 13.143 36.9592 13.7013 36.0908C14.2596 35.2224 14.75 34.4744 15.0149 33.4923C15.2798 32.5102 15.2317 31.6418 15.1835 30.6094C15.1332 29.577 15.0215 28.4439 14.9361 27.3568C14.8507 26.2697 14.7872 25.2133 14.8047 24.3996C14.8201 23.5859 15.0368 22.9931 14.958 23.1287C14.8792 23.2644 15.2886 22.8028 15.987 22.3807C16.6854 21.9585 17.6268 21.4861 18.6143 21.0158C19.5995 20.5455 20.6394 20.0643 21.559 19.5918C22.4785 19.1194 23.2732 18.7213 23.9935 18.0038C24.7138 17.2842 25.1123 16.4924 25.5874 15.5737C26.0625 14.6551 26.5223 13.6379 26.9952 12.6537C27.4659 11.6694 27.941 10.7157 28.3635 10.0179C28.7861 9.32236 29.2655 8.90896 29.1298 8.98552C28.9941 9.06207 29.5896 8.87178 30.4062 8.85428C31.2228 8.83897 32.2781 8.90021 33.3706 8.98552C34.4631 9.07082 35.5797 9.1605 36.6152 9.21081C37.6508 9.26112 38.5375 9.30487 39.5227 9.04239C40.5079 8.77991 41.2589 8.31182 42.1303 7.75406C43.0016 7.19629 43.9256 6.54009 44.8276 5.92108C45.7296 5.30207 46.6075 4.72461 47.3235 4.33308C48.0394 3.94155 48.6612 3.82563 48.5057 3.82563V3.83ZM48.4948 16.2234C34.0011 16.2234 22.207 27.9846 22.207 42.4472C22.207 56.9097 34.0011 68.671 48.4948 68.671C62.9884 68.671 74.7825 56.9097 74.7825 42.4472C74.7825 27.9846 62.9884 16.2234 48.4948 16.2234ZM48.4948 20.0556C60.9216 20.0556 70.9511 30.0582 70.9511 42.4472C70.9511 54.8361 60.9216 64.8431 48.4948 64.8431C36.0679 64.8431 26.0384 54.8361 26.0384 42.4472C26.0384 30.0582 36.0679 20.0556 48.4948 20.0556ZM58.833 33.4616C58.336 33.477 57.8631 33.6847 57.515 34.0435L44.8867 46.8174L39.4833 41.3776C39.1286 41.0035 38.636 40.787 38.1193 40.7804C37.6027 40.7717 37.1057 40.9729 36.7379 41.336C36.37 41.6991 36.1664 42.1956 36.1686 42.7118C36.1708 43.228 36.3832 43.7202 36.7532 44.0789L43.5249 50.8858C43.884 51.2511 44.3766 51.4567 44.8911 51.4567C45.4056 51.4567 45.896 51.2511 46.2572 50.8858L60.2385 36.7295C60.7903 36.1739 60.9501 35.3384 60.6392 34.6209C60.3283 33.9013 59.6102 33.4441 58.8286 33.466L58.833 33.4616ZM77.9593 68.3319L91.5969 91.8959L77.4273 90.752C76.6303 90.682 75.8728 91.1172 75.5313 91.8391L69.4514 104.652L55.8248 81.1212C56.197 80.8697 56.6173 80.5744 56.9435 80.3666C57.7054 79.8788 58.3995 79.5573 58.463 79.5398C58.5265 79.5245 59.284 79.461 60.1882 79.5026C61.0924 79.5463 62.1936 79.6382 63.319 79.7279C64.4443 79.8154 65.5894 79.881 66.6578 79.8591C67.7262 79.8372 68.6961 79.8241 69.7711 79.2051C70.846 78.5861 71.354 77.7615 71.9079 76.8493C72.4618 75.9394 72.9588 74.9092 73.4448 73.8921C73.933 72.875 74.3994 71.871 74.8132 71.0704C75.227 70.2699 75.6692 69.6399 75.7152 69.594C75.7612 69.5481 76.3917 69.1062 77.1974 68.6928C77.4141 68.5813 77.7185 68.4479 77.9615 68.3297L77.9593 68.3319ZM19.1857 68.4041C19.3762 68.496 19.6214 68.6075 19.7965 68.695C20.6 69.1084 21.2284 69.5503 21.2743 69.5962C21.3203 69.6421 21.7604 70.2721 22.1764 71.0726C22.5923 71.8732 23.0587 72.8772 23.5447 73.8943C24.0329 74.9114 24.5299 75.9394 25.0816 76.8515C25.6356 77.7615 26.1435 78.5861 27.2185 79.2073C28.2935 79.8263 29.2633 79.8394 30.3318 79.8613C31.4002 79.8832 32.543 79.8176 33.6705 79.7301C34.7959 79.6426 35.8993 79.5485 36.8013 79.5048C37.7056 79.461 38.4631 79.5244 38.5266 79.5419C38.5901 79.5573 39.2841 79.881 40.046 80.3688C40.4138 80.6028 40.8801 80.9265 41.3027 81.2131L27.5491 104.98L21.4539 92.1518C21.1145 91.4366 20.3679 91.0035 19.5754 91.0648L5.39046 92.224L19.1857 68.4041Z"/>
</svg>
